<?xml version="1.0" standalone="no"?><!DOCTYPE svg PUBLIC "-//W3C//DTD SVG 1.1//EN" "http://www.w3.org/Graphics/SVG/1.1/DTD/svg11.dtd"><svg t="1735608001522" class="icon" viewBox="0 0 1024 1024" version="1.1" xmlns="http://www.w3.org/2000/svg" p-id="69825" xmlns:xlink="http://www.w3.org/1999/xlink" width="32" height="32"><path d="M867.2 198.4c-19.2 0-32 12.8-32 32V800c0 35.2-28.8 64-64 64H252.8c-35.2 0-64-28.8-64-64v-3.2h550.4c19.2 0 32-12.8 32-32 0-16-12.8-32-32-32H188.8v-64h454.4c70.4 0 128-57.6 128-128V224c0-70.4-57.6-128-128-128H256C182.4 96 124.8 153.6 124.8 224v576c0 70.4 57.6 128 128 128h518.4c70.4 0 128-57.6 128-128V230.4c0-19.2-12.8-32-32-32zM220.8 444.8l137.6-124.8c-16-48-6.4-99.2 32-137.6l6.4-6.4c35.2-35.2 96-41.6 137.6-41.6h3.2c22.4 0 35.2 12.8 41.6 25.6 6.4 16 3.2 35.2-9.6 51.2L524.8 256c0 6.4 0 9.6 3.2 16 6.4 0 9.6 3.2 16 3.2l44.8-44.8c6.4-3.2 16-12.8 32-12.8 12.8 0 22.4 3.2 32 12.8 6.4 6.4 12.8 16 12.8 35.2 0 51.2-6.4 105.6-38.4 140.8l-6.4 6.4c-25.6 25.6-57.6 38.4-92.8 38.4-16 0-32-3.2-44.8-9.6-3.2 3.2-6.4 6.4-9.6 12.8-9.6 9.6-108.8 121.6-115.2 124.8-12.8 12.8-38.4 28.8-70.4 28.8-25.6 0-48-9.6-67.2-28.8-44.8-44.8-28.8-105.6 0-134.4z" fill="#ffffff" p-id="69826"></path><path d="M617.6 262.4s-48 48-51.2 54.4c-6.4 3.2-22.4 3.2-22.4 3.2s-44.8-6.4-51.2-9.6c-6.4-6.4-9.6-54.4-9.6-54.4s0-12.8 6.4-19.2l51.2-51.2s6.4-6.4-3.2-6.4c-28.8 0-83.2 0-112 28.8l-6.4 6.4c-32 32-35.2 80-9.6 115.2l-160 144c-12.8 12.8-28.8 48 0 76.8 28.8 28.8 64 12.8 76.8 0 0 0 105.6-115.2 115.2-124.8 9.6-9.6 3.2-19.2 3.2-19.2s-19.2-25.6-28.8-41.6c-6.4-9.6-3.2-9.6 6.4-3.2 22.4 12.8 44.8 28.8 51.2 32 35.2 25.6 83.2 25.6 115.2-9.6l6.4-6.4c25.6-25.6 28.8-83.2 28.8-112 0-9.6-6.4-3.2-6.4-3.2zM294.4 534.4c-16 0-25.6-12.8-25.6-25.6s9.6-28.8 25.6-28.8 25.6 12.8 25.6 25.6-12.8 28.8-25.6 28.8z" fill="#ffffff" p-id="69827"></path></svg>